<svg xmlns="http://www.w3.org/2000/svg" width="512" height="421" viewBox="0 0 512 421">
    <rect width="100%" height="100%" fill="#E1E1E1"/>
    <path d="M 352 167 L 339 168 L 333 169 L 329 170 L 325 171 L 322 172 L 317 174 L 305 180 L 302 182 L 299 184 L 295 187 L 291 190 L 277 204 L 275 208 L 272 211 L 270 211 L 267 210 L 264 208 L 261 207 L 252 207 L 249 208 L 246 209 L 241 212 L 232 215 L 228 216 L 222 217 L 212 218 L 206 218 L 197 217 L 191 216 L 187 215 L 183 214 L 175 211 L 170 208 L 167 207 L 158 207 L 146 210 L 143 211 L 140 212 L 135 214 L 123 220 L 120 222 L 116 225 L 102 239 L 96 248 L 92 256 L 91 259 L 90 262 L 87 274 L 86 282 L 86 324 L 87 334 L 88 337 L 89 339 L 90 341 L 97 348 L 100 350 L 103 351 L 106 352 L 315 352 L 318 353 L 324 356 L 327 357 L 331 358 L 336 359 L 342 360 L 364 360 L 370 359 L 382 356 L 385 355 L 388 354 L 402 347 L 411 341 L 416 337 L 425 328 L 430 322 L 433 318 L 436 313 L 439 308 L 440 306 L 441 304 L 444 297 L 446 290 L 447 286 L 448 282 L 449 276 L 450 259 L 450 257 L 449 248 L 447 246 L 446 238 L 443 229 L 436 215 L 434 212 L 432 209 L 429 205 L 412 188 L 405 183 L 402 181 L 397 178 L 395 177 L 393 176 L 386 173 L 383 172 L 380 171 L 376 170 L 372 169 L 366 168 Z M 341 183 L 364 183 L 369 184 L 373 185 L 380 187 L 385 189 L 391 192 L 396 195 L 399 197 L 404 201 L 416 213 L 419 217 L 421 220 L 424 225 L 427 231 L 429 236 L 432 245 L 433 251 L 434 260 L 434 269 L 433 278 L 432 282 L 431 286 L 430 289 L 429 292 L 427 297 L 423 305 L 421 308 L 419 311 L 416 315 L 405 326 L 400 330 L 397 332 L 394 334 L 387 338 L 380 341 L 377 342 L 373 343 L 369 344 L 363 345 L 340 345 L 335 344 L 331 343 L 322 340 L 310 334 L 307 332 L 304 330 L 300 327 L 290 317 L 286 312 L 284 309 L 282 306 L 279 301 L 278 299 L 277 297 L 275 292 L 274 289 L 271 277 L 271 251 L 272 246 L 273 242 L 274 239 L 275 236 L 278 229 L 282 222 L 284 219 L 286 216 L 290 211 L 300 201 L 304 198 L 307 196 L 310 194 L 315 191 L 317 190 L 319 189 L 324 187 L 331 185 L 336 184 Z" fill="#26496D" fill-rule="evenodd"/>
    <path d="M 207 54 L 199 55 L 195 56 L 191 57 L 188 58 L 184 60 L 178 63 L 175 65 L 172 67 L 168 70 L 165 73 L 158 81 L 156 84 L 153 89 L 149 97 L 148 100 L 147 103 L 146 107 L 145 111 L 144 120 L 144 129 L 145 136 L 146 141 L 147 144 L 148 147 L 150 152 L 151 154 L 152 156 L 155 161 L 158 165 L 162 170 L 164 172 L 170 177 L 174 180 L 177 182 L 183 185 L 195 189 L 200 190 L 220 190 L 225 189 L 234 186 L 238 184 L 244 181 L 247 179 L 250 177 L 255 173 L 263 164 L 265 161 L 268 156 L 269 154 L 273 144 L 274 140 L 275 136 L 276 124 L 276 122 L 275 112 L 274 107 L 271 98 L 269 94 L 266 88 L 264 85 L 261 81 L 257 76 L 253 72 L 252 72 L 247 67 L 244 65 L 241 63 L 233 59 L 224 56 L 220 55 L 214 54 Z" fill="#26496D"/>
    <path d="M 351 198 L 349 198 L 346 201 L 345 206 L 345 261 L 340 266 L 312 293 L 310 297 L 310 299 L 311 302 L 313 304 L 319 305 L 321 305 L 323 304 L 345 283 L 359 269 L 360 267 L 361 213 L 361 208 L 360 202 L 358 199 L 356 198 L 354 198 Z" fill="#26496D"/>
  </svg>
  